<?xml version="1.0" encoding="UTF-8"?>
<svg id="Layer_1" xmlns="http://www.w3.org/2000/svg" version="1.1" viewBox="0 0 12 12">
  <!-- Generator: Adobe Illustrator 30.1.0, SVG Export Plug-In . SVG Version: 2.1.1 Build 136)  -->
  <defs>
    <style>
      .st0 {
        fill: #fff;
        fill-rule: evenodd;
      }
    </style>
  </defs>
  <path class="st0" d="M11.2,8.8c-.7.6-1.6,1.2-2.7,1.7,0,0,0,0,0,0h0s0,0,0,0c.1,0,.2,0,.3,0s.2,0,.3,0h0s0,0,0,0c0,0,.1,0,.2-.2h0c.1-.2.2-.2.3-.3.2,0,.3-.1.5-.1s.3,0,.5.1h0c0,0,.2.1.3.2h0c.1.2.2.2.2.3h0s0,0,0,0c.1,0,.2,0,.3,0h0c0,0,.2,0,.2.1s0,.2-.1.2c0,0,0,0,0,0-.2,0-.3,0-.5-.1,0,0,0,0,0,0h0s0,0,0,0h0c0,0-.2-.1-.2-.2h0c0-.1-.2-.2-.2-.2h0s0,0,0,0c0,0-.2,0-.3,0-.1,0-.2,0-.3,0h0s0,0,0,0c0,0-.1,0-.2.2h0c0,.1-.2.2-.3.3h0s0,0,0,0h0c-.1.1-.3.2-.5.2-.2,0-.3,0-.5-.1,0,0,0,0,0,0h0s0,0,0,0h0c0,0-.1-.1-.2-.2,0,0,0,0,0,0h0c0-.1-.2-.2-.2-.2h0s0,0,0,0c0,0-.2,0-.3,0-.1,0-.2,0-.3,0h0s0,0,0,0c0,0-.1,0-.2.2h0c0,.1-.2.2-.3.3h0s0,0,0,0h0c-.1.1-.3.2-.5.2-.2,0-.3,0-.5-.1,0,0,0,0,0,0h0s0,0,0,0h0c0,0-.2-.1-.2-.2h0c0-.1-.2-.2-.2-.2h0s0,0,0,0c0,0-.2,0-.3,0-.1,0-.2,0-.3,0h0s0,0,0,0c0,0-.1,0-.2.2h0c0,.1-.2.2-.3.3h0s0,0,0,0h0c-.1.1-.3.2-.5.2-.4,0-.7-.2-.9-.4h0s0,0,0-.1h0c0,0,0-.1,0-.1h0c0,0-.1,0-.2-.1,0,0,0,0,0,0h0c0,0-.1,0-.2,0,0,0,0,0,0,0h0s0,0,0,0c-.1,0-.3.2-.4.3l-.2.2h0c0,0-.1.1-.2.1-.2.1-.3.2-.4.2,0,0-.2,0-.1-.2,0,0,0-.1.1-.1h0s.1,0,.2,0h0s0,0,.1-.1l.2-.2h0c.1-.1.3-.2.4-.3l-.3-.6c0,0,0-.2,0-.2,0,0,0,0,0,0l10.1-.7c0,0,.2,0,.2.1,0,0,0,0,0,.1ZM10.6,8.9l-9.4.6.2.4c0,0,.1,0,.2,0,0,0,0,0,0,0,0,0,.1,0,.2,0,0,0,.1,0,.2.2h0s0,0,0,0h0c0,0,0,.1,0,.1,0,0,0,0,0,0,.2.2.5.3.8.4h0c.1,0,.2,0,.3,0h0s0,0,0,0h0c0,0,.1,0,.2-.2h0c.1-.2.2-.2.3-.3.2,0,.3-.1.5-.1s.3,0,.5.1h0c0,0,.2.1.3.2h0c.1.2.2.2.2.3h0s0,0,0,0c.1,0,.2,0,.3,0s.2,0,.3,0h0s0,0,0,0c0,0,.1,0,.2-.2h0c.1-.2.2-.2.3-.3.2,0,.3-.1.5-.1s.3,0,.5.1h0c0,0,.2.1.3.2.9-.4,1.7-.9,2.4-1.4h0s0,0,0,0ZM1.8,1c1.2.5,2.5,1.5,3.6,2.6,1.2,1.4,2.1,2.9,2.3,4.6,0,0,0,.2-.1.2,0,0,0,0,0,0-1.2-.5-2.3-.6-3.3-.5-.9,0-1.7.4-2.4.9-.1,0-.3,0-.2-.2.9-1.2,1.3-2.5,1.2-3.9,0-1.1-.5-2.3-1.1-3.4,0,0,0-.2,0-.2,0,0,0,0,.1,0h0ZM5,2.2c.9.3,1.9,1.1,2.9,2.1,1,1.1,1.8,2.5,2.2,3.8,0,0,0,.2-.1.2,0,0,0,0,0,0h0s-.2,0-.2,0c0,0,0,0-.1,0h0c-.3-.1-.6-.1-1,0,0,0-.2,0-.2-.1-.7-2.5-1.8-4.4-3.5-5.5-.1-.1,0-.3.1-.3h0ZM2.1,1.5h0c.5,1,.9,2,.9,3.1.1,1.3-.2,2.5-.8,3.5h0s0,0,0,0c.6-.3,1.2-.5,1.9-.6h0c1-.1,2,0,3.2.4h0s0,0,0,0c-.3-1.5-1.1-2.9-2.2-4.1h0c-.9-1-2-1.8-3-2.4,0,0,0,0,0,0ZM6.1,3.1h0c1.1,1.2,1.9,2.7,2.5,4.6h0c0,0,0,0,0,0,.4,0,.6,0,1,0h0s0,0,0,0h0s0,0,0,0c-.4-1.2-1.1-2.3-2-3.3h0c-.5-.6-1.1-1.1-1.6-1.5,0,0,0,0,0,0Z"/>
</svg>