<svg id="Layer_1" data-name="Layer 1" xmlns="http://www.w3.org/2000/svg" viewBox="0 0 800 800"><defs><style>.cls-1{fill:#fff;}</style></defs><title>Artboard 2</title><path class="cls-1" d="M165.12,181.62V650H633.51V181.62ZM600.7,617.2H197.94V214.44H600.7Z"/><path class="cls-1" d="M425.55,558.4c-15.89-2.76-22.68-15-22.68-41V321.12c0-32.85,10.1-52.64,31.58-52.64v-4.21s-37.06,1.26-80.86,1.26-80.86-1.26-80.86-1.26v4.21c21.48,0,31.59,7.58,31.59,37.48V502.2c0,32.85-10.11,52.64-31.59,52.64v4.21s5.9-1.26,80.86-1.26C371.82,557.8,396.77,558.09,425.55,558.4Z"/><path class="cls-1" d="M543.94,434.4h-4.21c-12.86,53.85-47.08,118.36-98.85,124.16,26.48.27,55.57.5,85.37.5Z"/></svg>